<?xml version="1.0" encoding="utf-8" standalone="no"?>
<!DOCTYPE svg PUBLIC "-//W3C//DTD SVG 1.1//EN"
  "http://www.w3.org/Graphics/SVG/1.1/DTD/svg11.dtd">
<svg xmlns:xlink="http://www.w3.org/1999/xlink" width="1296pt" height="504pt" viewBox="0 0 1296 504" xmlns="http://www.w3.org/2000/svg" version="1.1">
 <metadata>
  <rdf:RDF xmlns:dc="http://purl.org/dc/elements/1.1/" xmlns:cc="http://creativecommons.org/ns#" xmlns:rdf="http://www.w3.org/1999/02/22-rdf-syntax-ns#">
   <cc:Work>
    <dc:type rdf:resource="http://purl.org/dc/dcmitype/StillImage"/>
    <dc:date>2026-03-07T19:18:06.289188</dc:date>
    <dc:format>image/svg+xml</dc:format>
    <dc:creator>
     <cc:Agent>
      <dc:title>Matplotlib v3.10.8, https://matplotlib.org/</dc:title>
     </cc:Agent>
    </dc:creator>
   </cc:Work>
  </rdf:RDF>
 </metadata>
 <defs>
  <style type="text/css">*{stroke-linejoin: round; stroke-linecap: butt}</style>
 </defs>
 <g id="figure_1">
  <g id="patch_1">
   <path d="M 0 504 
L 1296 504 
L 1296 0 
L 0 0 
z
" style="fill: #ffffff"/>
  </g>
  <g id="axes_1">
   <g id="patch_2">
    <path d="M 210.62 293.08 
L 1240.245 293.08 
L 1240.245 27.36 
L 210.62 27.36 
z
" style="fill: #ffffff"/>
   </g>
   <g id="axes_2">
    <g id="patch_3">
     <path d="M 210.62 293.08 
L 1240.245 293.08 
L 1240.245 293.08 
L 210.62 293.08 
z
" style="fill: #ffffff"/>
    </g>
    <g id="matplotlib.axis_1">
     <g id="xtick_1">
      <g id="line2d_1">
       <defs>
        <path id="me36b15ca8d" d="M 0 0 
L 0 7 
" style="stroke: #000000; stroke-width: 1.5"/>
       </defs>
       <g>
        <use xlink:href="#me36b15ca8d" x="229.15325" y="393.08" style="stroke: #000000; stroke-width: 1.5"/>
       </g>
      </g>
      <g id="text_1">
       <!-- 0s -->
       <g transform="translate(205.916375 435.434375) scale(0.36 -0.36)">
        <defs>
         <path id="DejaVuSans-Bold-30" d="M 2944 2338 
Q 2944 3213 2780 3570 
Q 2616 3928 2228 3928 
Q 1841 3928 1675 3570 
Q 1509 3213 1509 2338 
Q 1509 1453 1675 1090 
Q 1841 728 2228 728 
Q 2613 728 2778 1090 
Q 2944 1453 2944 2338 
z
M 4147 2328 
Q 4147 1169 3647 539 
Q 3147 -91 2228 -91 
Q 1306 -91 806 539 
Q 306 1169 306 2328 
Q 306 3491 806 4120 
Q 1306 4750 2228 4750 
Q 3147 4750 3647 4120 
Q 4147 3491 4147 2328 
z
" transform="scale(0.015625)"/>
         <path id="DejaVuSans-Bold-73" d="M 3272 3391 
L 3272 2541 
Q 2913 2691 2578 2766 
Q 2244 2841 1947 2841 
Q 1628 2841 1473 2761 
Q 1319 2681 1319 2516 
Q 1319 2381 1436 2309 
Q 1553 2238 1856 2203 
L 2053 2175 
Q 2913 2066 3209 1816 
Q 3506 1566 3506 1031 
Q 3506 472 3093 190 
Q 2681 -91 1863 -91 
Q 1516 -91 1145 -36 
Q 775 19 384 128 
L 384 978 
Q 719 816 1070 734 
Q 1422 653 1784 653 
Q 2113 653 2278 743 
Q 2444 834 2444 1013 
Q 2444 1163 2330 1236 
Q 2216 1309 1875 1350 
L 1678 1375 
Q 931 1469 631 1722 
Q 331 1975 331 2491 
Q 331 3047 712 3315 
Q 1094 3584 1881 3584 
Q 2191 3584 2531 3537 
Q 2872 3491 3272 3391 
z
" transform="scale(0.015625)"/>
        </defs>
        <use xlink:href="#DejaVuSans-Bold-30"/>
        <use xlink:href="#DejaVuSans-Bold-73" transform="translate(69.580078 0)"/>
       </g>
      </g>
     </g>
     <g id="xtick_2">
      <g id="line2d_2">
       <g>
        <use xlink:href="#me36b15ca8d" x="575.221154" y="393.08" style="stroke: #000000; stroke-width: 1.5"/>
       </g>
      </g>
      <g id="text_2">
       <!-- 2s -->
       <g transform="translate(551.984279 435.434375) scale(0.36 -0.36)">
        <defs>
         <path id="DejaVuSans-Bold-32" d="M 1844 884 
L 3897 884 
L 3897 0 
L 506 0 
L 506 884 
L 2209 2388 
Q 2438 2594 2547 2791 
Q 2656 2988 2656 3200 
Q 2656 3528 2436 3728 
Q 2216 3928 1850 3928 
Q 1569 3928 1234 3808 
Q 900 3688 519 3450 
L 519 4475 
Q 925 4609 1322 4679 
Q 1719 4750 2100 4750 
Q 2938 4750 3402 4381 
Q 3866 4013 3866 3353 
Q 3866 2972 3669 2642 
Q 3472 2313 2841 1759 
L 1844 884 
z
" transform="scale(0.015625)"/>
        </defs>
        <use xlink:href="#DejaVuSans-Bold-32"/>
        <use xlink:href="#DejaVuSans-Bold-73" transform="translate(69.580078 0)"/>
       </g>
      </g>
     </g>
     <g id="xtick_3">
      <g id="line2d_3">
       <g>
        <use xlink:href="#me36b15ca8d" x="789.712395" y="393.08" style="stroke: #000000; stroke-width: 1.5"/>
       </g>
      </g>
      <g id="text_3">
       <!-- 3s -->
       <g transform="translate(766.47552 435.434375) scale(0.36 -0.36)">
        <defs>
         <path id="DejaVuSans-Bold-33" d="M 2981 2516 
Q 3453 2394 3698 2092 
Q 3944 1791 3944 1325 
Q 3944 631 3412 270 
Q 2881 -91 1863 -91 
Q 1503 -91 1142 -33 
Q 781 25 428 141 
L 428 1069 
Q 766 900 1098 814 
Q 1431 728 1753 728 
Q 2231 728 2486 893 
Q 2741 1059 2741 1369 
Q 2741 1688 2480 1852 
Q 2219 2016 1709 2016 
L 1228 2016 
L 1228 2791 
L 1734 2791 
Q 2188 2791 2409 2933 
Q 2631 3075 2631 3366 
Q 2631 3634 2415 3781 
Q 2200 3928 1806 3928 
Q 1516 3928 1219 3862 
Q 922 3797 628 3669 
L 628 4550 
Q 984 4650 1334 4700 
Q 1684 4750 2022 4750 
Q 2931 4750 3382 4451 
Q 3834 4153 3834 3553 
Q 3834 3144 3618 2883 
Q 3403 2622 2981 2516 
z
" transform="scale(0.015625)"/>
        </defs>
        <use xlink:href="#DejaVuSans-Bold-33"/>
        <use xlink:href="#DejaVuSans-Bold-73" transform="translate(69.580078 0)"/>
       </g>
      </g>
     </g>
     <g id="xtick_4">
      <g id="line2d_4">
       <g>
        <use xlink:href="#me36b15ca8d" x="986.854288" y="393.08" style="stroke: #000000; stroke-width: 1.5"/>
       </g>
      </g>
      <g id="text_4">
       <!-- 4s -->
       <g transform="translate(963.617413 435.434375) scale(0.36 -0.36)">
        <defs>
         <path id="DejaVuSans-Bold-34" d="M 2356 3675 
L 1038 1722 
L 2356 1722 
L 2356 3675 
z
M 2156 4666 
L 3494 4666 
L 3494 1722 
L 4159 1722 
L 4159 850 
L 3494 850 
L 3494 0 
L 2356 0 
L 2356 850 
L 288 850 
L 288 1881 
L 2156 4666 
z
" transform="scale(0.015625)"/>
        </defs>
        <use xlink:href="#DejaVuSans-Bold-34"/>
        <use xlink:href="#DejaVuSans-Bold-73" transform="translate(69.580078 0)"/>
       </g>
      </g>
     </g>
     <g id="text_5">
      <!-- Physical Time (s) -->
      <g transform="translate(552.705625 486.275625) scale(0.36 -0.36)">
       <defs>
        <path id="DejaVuSans-Bold-50" d="M 588 4666 
L 2584 4666 
Q 3475 4666 3951 4270 
Q 4428 3875 4428 3144 
Q 4428 2409 3951 2014 
Q 3475 1619 2584 1619 
L 1791 1619 
L 1791 0 
L 588 0 
L 588 4666 
z
M 1791 3794 
L 1791 2491 
L 2456 2491 
Q 2806 2491 2997 2661 
Q 3188 2831 3188 3144 
Q 3188 3456 2997 3625 
Q 2806 3794 2456 3794 
L 1791 3794 
z
" transform="scale(0.015625)"/>
        <path id="DejaVuSans-Bold-68" d="M 4056 2131 
L 4056 0 
L 2931 0 
L 2931 347 
L 2931 1625 
Q 2931 2084 2911 2256 
Q 2891 2428 2841 2509 
Q 2775 2619 2662 2680 
Q 2550 2741 2406 2741 
Q 2056 2741 1856 2470 
Q 1656 2200 1656 1722 
L 1656 0 
L 538 0 
L 538 4863 
L 1656 4863 
L 1656 2988 
Q 1909 3294 2193 3439 
Q 2478 3584 2822 3584 
Q 3428 3584 3742 3212 
Q 4056 2841 4056 2131 
z
" transform="scale(0.015625)"/>
        <path id="DejaVuSans-Bold-79" d="M 78 3500 
L 1197 3500 
L 2138 1125 
L 2938 3500 
L 4056 3500 
L 2584 -331 
Q 2363 -916 2067 -1148 
Q 1772 -1381 1288 -1381 
L 641 -1381 
L 641 -647 
L 991 -647 
Q 1275 -647 1404 -556 
Q 1534 -466 1606 -231 
L 1638 -134 
L 78 3500 
z
" transform="scale(0.015625)"/>
        <path id="DejaVuSans-Bold-69" d="M 538 3500 
L 1656 3500 
L 1656 0 
L 538 0 
L 538 3500 
z
M 538 4863 
L 1656 4863 
L 1656 3950 
L 538 3950 
L 538 4863 
z
" transform="scale(0.015625)"/>
        <path id="DejaVuSans-Bold-63" d="M 3366 3391 
L 3366 2478 
Q 3138 2634 2908 2709 
Q 2678 2784 2431 2784 
Q 1963 2784 1702 2511 
Q 1441 2238 1441 1747 
Q 1441 1256 1702 982 
Q 1963 709 2431 709 
Q 2694 709 2930 787 
Q 3166 866 3366 1019 
L 3366 103 
Q 3103 6 2833 -42 
Q 2563 -91 2291 -91 
Q 1344 -91 809 395 
Q 275 881 275 1747 
Q 275 2613 809 3098 
Q 1344 3584 2291 3584 
Q 2566 3584 2833 3536 
Q 3100 3488 3366 3391 
z
" transform="scale(0.015625)"/>
        <path id="DejaVuSans-Bold-61" d="M 2106 1575 
Q 1756 1575 1579 1456 
Q 1403 1338 1403 1106 
Q 1403 894 1545 773 
Q 1688 653 1941 653 
Q 2256 653 2472 879 
Q 2688 1106 2688 1447 
L 2688 1575 
L 2106 1575 
z
M 3816 1997 
L 3816 0 
L 2688 0 
L 2688 519 
Q 2463 200 2181 54 
Q 1900 -91 1497 -91 
Q 953 -91 614 226 
Q 275 544 275 1050 
Q 275 1666 698 1953 
Q 1122 2241 2028 2241 
L 2688 2241 
L 2688 2328 
Q 2688 2594 2478 2717 
Q 2269 2841 1825 2841 
Q 1466 2841 1156 2769 
Q 847 2697 581 2553 
L 581 3406 
Q 941 3494 1303 3539 
Q 1666 3584 2028 3584 
Q 2975 3584 3395 3211 
Q 3816 2838 3816 1997 
z
" transform="scale(0.015625)"/>
        <path id="DejaVuSans-Bold-6c" d="M 538 4863 
L 1656 4863 
L 1656 0 
L 538 0 
L 538 4863 
z
" transform="scale(0.015625)"/>
        <path id="DejaVuSans-Bold-20" transform="scale(0.015625)"/>
        <path id="DejaVuSans-Bold-54" d="M 31 4666 
L 4331 4666 
L 4331 3756 
L 2784 3756 
L 2784 0 
L 1581 0 
L 1581 3756 
L 31 3756 
L 31 4666 
z
" transform="scale(0.015625)"/>
        <path id="DejaVuSans-Bold-6d" d="M 3781 2919 
Q 3994 3244 4286 3414 
Q 4578 3584 4928 3584 
Q 5531 3584 5847 3212 
Q 6163 2841 6163 2131 
L 6163 0 
L 5038 0 
L 5038 1825 
Q 5041 1866 5042 1909 
Q 5044 1953 5044 2034 
Q 5044 2406 4934 2573 
Q 4825 2741 4581 2741 
Q 4263 2741 4089 2478 
Q 3916 2216 3909 1719 
L 3909 0 
L 2784 0 
L 2784 1825 
Q 2784 2406 2684 2573 
Q 2584 2741 2328 2741 
Q 2006 2741 1831 2477 
Q 1656 2213 1656 1722 
L 1656 0 
L 531 0 
L 531 3500 
L 1656 3500 
L 1656 2988 
Q 1863 3284 2130 3434 
Q 2397 3584 2719 3584 
Q 3081 3584 3359 3409 
Q 3638 3234 3781 2919 
z
" transform="scale(0.015625)"/>
        <path id="DejaVuSans-Bold-65" d="M 4031 1759 
L 4031 1441 
L 1416 1441 
Q 1456 1047 1700 850 
Q 1944 653 2381 653 
Q 2734 653 3104 758 
Q 3475 863 3866 1075 
L 3866 213 
Q 3469 63 3072 -14 
Q 2675 -91 2278 -91 
Q 1328 -91 801 392 
Q 275 875 275 1747 
Q 275 2603 792 3093 
Q 1309 3584 2216 3584 
Q 3041 3584 3536 3087 
Q 4031 2591 4031 1759 
z
M 2881 2131 
Q 2881 2450 2695 2645 
Q 2509 2841 2209 2841 
Q 1884 2841 1681 2658 
Q 1478 2475 1428 2131 
L 2881 2131 
z
" transform="scale(0.015625)"/>
        <path id="DejaVuSans-Bold-28" d="M 2413 -844 
L 1484 -844 
Q 1006 -72 778 623 
Q 550 1319 550 2003 
Q 550 2688 779 3389 
Q 1009 4091 1484 4856 
L 2413 4856 
Q 2013 4116 1813 3408 
Q 1613 2700 1613 2009 
Q 1613 1319 1811 609 
Q 2009 -100 2413 -844 
z
" transform="scale(0.015625)"/>
        <path id="DejaVuSans-Bold-29" d="M 513 -844 
Q 913 -100 1113 609 
Q 1313 1319 1313 2009 
Q 1313 2700 1113 3408 
Q 913 4116 513 4856 
L 1441 4856 
Q 1916 4091 2145 3389 
Q 2375 2688 2375 2003 
Q 2375 1319 2147 623 
Q 1919 -72 1441 -844 
L 513 -844 
z
" transform="scale(0.015625)"/>
       </defs>
       <use xlink:href="#DejaVuSans-Bold-50"/>
       <use xlink:href="#DejaVuSans-Bold-68" transform="translate(73.291016 0)"/>
       <use xlink:href="#DejaVuSans-Bold-79" transform="translate(144.482422 0)"/>
       <use xlink:href="#DejaVuSans-Bold-73" transform="translate(209.667969 0)"/>
       <use xlink:href="#DejaVuSans-Bold-69" transform="translate(269.189453 0)"/>
       <use xlink:href="#DejaVuSans-Bold-63" transform="translate(303.466797 0)"/>
       <use xlink:href="#DejaVuSans-Bold-61" transform="translate(362.744141 0)"/>
       <use xlink:href="#DejaVuSans-Bold-6c" transform="translate(430.224609 0)"/>
       <use xlink:href="#DejaVuSans-Bold-20" transform="translate(464.501953 0)"/>
       <use xlink:href="#DejaVuSans-Bold-54" transform="translate(499.316406 0)"/>
       <use xlink:href="#DejaVuSans-Bold-69" transform="translate(567.529297 0)"/>
       <use xlink:href="#DejaVuSans-Bold-6d" transform="translate(601.806641 0)"/>
       <use xlink:href="#DejaVuSans-Bold-65" transform="translate(706.005859 0)"/>
       <use xlink:href="#DejaVuSans-Bold-20" transform="translate(773.828125 0)"/>
       <use xlink:href="#DejaVuSans-Bold-28" transform="translate(808.642578 0)"/>
       <use xlink:href="#DejaVuSans-Bold-73" transform="translate(854.345703 0)"/>
       <use xlink:href="#DejaVuSans-Bold-29" transform="translate(913.867188 0)"/>
      </g>
     </g>
    </g>
    <g id="matplotlib.axis_2"/>
    <g id="patch_4">
     <path d="M 210.62 393.08 
L 1240.245 393.08 
" style="fill: none; stroke: #000000; stroke-width: 1.5; stroke-linejoin: miter; stroke-linecap: square"/>
    </g>
   </g>
   <g id="matplotlib.axis_3">
    <g id="xtick_5">
     <g id="line2d_5">
      <g>
       <use xlink:href="#me36b15ca8d" x="210.62" y="293.08" style="stroke: #000000; stroke-width: 1.5"/>
      </g>
     </g>
     <g id="text_6">
      <!-- 0 -->
      <g transform="translate(195.660703 340.753281) scale(0.43 -0.43)">
       <use xlink:href="#DejaVuSans-Bold-30"/>
      </g>
     </g>
    </g>
    <g id="xtick_6">
     <g id="line2d_6">
      <g>
       <use xlink:href="#me36b15ca8d" x="416.545" y="293.08" style="stroke: #000000; stroke-width: 1.5"/>
      </g>
     </g>
     <g id="text_7">
      <!-- 20 -->
      <g transform="translate(386.626406 340.753281) scale(0.43 -0.43)">
       <use xlink:href="#DejaVuSans-Bold-32"/>
       <use xlink:href="#DejaVuSans-Bold-30" transform="translate(69.580078 0)"/>
      </g>
     </g>
    </g>
    <g id="xtick_7">
     <g id="line2d_7">
      <g>
       <use xlink:href="#me36b15ca8d" x="622.47" y="293.08" style="stroke: #000000; stroke-width: 1.5"/>
      </g>
     </g>
     <g id="text_8">
      <!-- 40 -->
      <g transform="translate(592.551406 340.753281) scale(0.43 -0.43)">
       <use xlink:href="#DejaVuSans-Bold-34"/>
       <use xlink:href="#DejaVuSans-Bold-30" transform="translate(69.580078 0)"/>
      </g>
     </g>
    </g>
    <g id="xtick_8">
     <g id="line2d_8">
      <g>
       <use xlink:href="#me36b15ca8d" x="828.395" y="293.08" style="stroke: #000000; stroke-width: 1.5"/>
      </g>
     </g>
     <g id="text_9">
      <!-- 60 -->
      <g transform="translate(798.476406 340.753281) scale(0.43 -0.43)">
       <defs>
        <path id="DejaVuSans-Bold-36" d="M 2316 2303 
Q 2000 2303 1842 2098 
Q 1684 1894 1684 1484 
Q 1684 1075 1842 870 
Q 2000 666 2316 666 
Q 2634 666 2792 870 
Q 2950 1075 2950 1484 
Q 2950 1894 2792 2098 
Q 2634 2303 2316 2303 
z
M 3803 4544 
L 3803 3681 
Q 3506 3822 3243 3889 
Q 2981 3956 2731 3956 
Q 2194 3956 1894 3657 
Q 1594 3359 1544 2772 
Q 1750 2925 1990 3001 
Q 2231 3078 2516 3078 
Q 3231 3078 3670 2659 
Q 4109 2241 4109 1563 
Q 4109 813 3618 361 
Q 3128 -91 2303 -91 
Q 1394 -91 895 523 
Q 397 1138 397 2266 
Q 397 3422 980 4083 
Q 1563 4744 2578 4744 
Q 2900 4744 3203 4694 
Q 3506 4644 3803 4544 
z
" transform="scale(0.015625)"/>
       </defs>
       <use xlink:href="#DejaVuSans-Bold-36"/>
       <use xlink:href="#DejaVuSans-Bold-30" transform="translate(69.580078 0)"/>
      </g>
     </g>
    </g>
    <g id="xtick_9">
     <g id="line2d_9">
      <g>
       <use xlink:href="#me36b15ca8d" x="1034.32" y="293.08" style="stroke: #000000; stroke-width: 1.5"/>
      </g>
     </g>
     <g id="text_10">
      <!-- 80 -->
      <g transform="translate(1004.401406 340.753281) scale(0.43 -0.43)">
       <defs>
        <path id="DejaVuSans-Bold-38" d="M 2228 2088 
Q 1891 2088 1709 1903 
Q 1528 1719 1528 1375 
Q 1528 1031 1709 848 
Q 1891 666 2228 666 
Q 2563 666 2741 848 
Q 2919 1031 2919 1375 
Q 2919 1722 2741 1905 
Q 2563 2088 2228 2088 
z
M 1350 2484 
Q 925 2613 709 2878 
Q 494 3144 494 3541 
Q 494 4131 934 4440 
Q 1375 4750 2228 4750 
Q 3075 4750 3515 4442 
Q 3956 4134 3956 3541 
Q 3956 3144 3739 2878 
Q 3522 2613 3097 2484 
Q 3572 2353 3814 2058 
Q 4056 1763 4056 1313 
Q 4056 619 3595 264 
Q 3134 -91 2228 -91 
Q 1319 -91 855 264 
Q 391 619 391 1313 
Q 391 1763 633 2058 
Q 875 2353 1350 2484 
z
M 1631 3419 
Q 1631 3141 1786 2991 
Q 1941 2841 2228 2841 
Q 2509 2841 2662 2991 
Q 2816 3141 2816 3419 
Q 2816 3697 2662 3845 
Q 2509 3994 2228 3994 
Q 1941 3994 1786 3844 
Q 1631 3694 1631 3419 
z
" transform="scale(0.015625)"/>
       </defs>
       <use xlink:href="#DejaVuSans-Bold-38"/>
       <use xlink:href="#DejaVuSans-Bold-30" transform="translate(69.580078 0)"/>
      </g>
     </g>
    </g>
    <g id="xtick_10">
     <g id="line2d_10">
      <g>
       <use xlink:href="#me36b15ca8d" x="1240.245" y="293.08" style="stroke: #000000; stroke-width: 1.5"/>
      </g>
     </g>
     <g id="text_11">
      <!-- 100 -->
      <g transform="translate(1195.367109 340.753281) scale(0.43 -0.43)">
       <defs>
        <path id="DejaVuSans-Bold-31" d="M 750 831 
L 1813 831 
L 1813 3847 
L 722 3622 
L 722 4441 
L 1806 4666 
L 2950 4666 
L 2950 831 
L 4013 831 
L 4013 0 
L 750 0 
L 750 831 
z
" transform="scale(0.015625)"/>
       </defs>
       <use xlink:href="#DejaVuSans-Bold-31"/>
       <use xlink:href="#DejaVuSans-Bold-30" transform="translate(69.580078 0)"/>
       <use xlink:href="#DejaVuSans-Bold-30" transform="translate(139.160156 0)"/>
      </g>
     </g>
    </g>
    <g id="text_12">
     <!-- Displacement (m) -->
     <g transform="translate(545.665938 391.050313) scale(0.36 -0.36)">
      <defs>
       <path id="DejaVuSans-Bold-44" d="M 1791 3756 
L 1791 909 
L 2222 909 
Q 2959 909 3348 1275 
Q 3738 1641 3738 2338 
Q 3738 3031 3350 3393 
Q 2963 3756 2222 3756 
L 1791 3756 
z
M 588 4666 
L 1856 4666 
Q 2919 4666 3439 4514 
Q 3959 4363 4331 4000 
Q 4659 3684 4818 3271 
Q 4978 2859 4978 2338 
Q 4978 1809 4818 1395 
Q 4659 981 4331 666 
Q 3956 303 3431 151 
Q 2906 0 1856 0 
L 588 0 
L 588 4666 
z
" transform="scale(0.015625)"/>
       <path id="DejaVuSans-Bold-70" d="M 1656 506 
L 1656 -1331 
L 538 -1331 
L 538 3500 
L 1656 3500 
L 1656 2988 
Q 1888 3294 2169 3439 
Q 2450 3584 2816 3584 
Q 3463 3584 3878 3070 
Q 4294 2556 4294 1747 
Q 4294 938 3878 423 
Q 3463 -91 2816 -91 
Q 2450 -91 2169 54 
Q 1888 200 1656 506 
z
M 2400 2772 
Q 2041 2772 1848 2508 
Q 1656 2244 1656 1747 
Q 1656 1250 1848 986 
Q 2041 722 2400 722 
Q 2759 722 2948 984 
Q 3138 1247 3138 1747 
Q 3138 2247 2948 2509 
Q 2759 2772 2400 2772 
z
" transform="scale(0.015625)"/>
       <path id="DejaVuSans-Bold-6e" d="M 4056 2131 
L 4056 0 
L 2931 0 
L 2931 347 
L 2931 1631 
Q 2931 2084 2911 2256 
Q 2891 2428 2841 2509 
Q 2775 2619 2662 2680 
Q 2550 2741 2406 2741 
Q 2056 2741 1856 2470 
Q 1656 2200 1656 1722 
L 1656 0 
L 538 0 
L 538 3500 
L 1656 3500 
L 1656 2988 
Q 1909 3294 2193 3439 
Q 2478 3584 2822 3584 
Q 3428 3584 3742 3212 
Q 4056 2841 4056 2131 
z
" transform="scale(0.015625)"/>
       <path id="DejaVuSans-Bold-74" d="M 1759 4494 
L 1759 3500 
L 2913 3500 
L 2913 2700 
L 1759 2700 
L 1759 1216 
Q 1759 972 1856 886 
Q 1953 800 2241 800 
L 2816 800 
L 2816 0 
L 1856 0 
Q 1194 0 917 276 
Q 641 553 641 1216 
L 641 2700 
L 84 2700 
L 84 3500 
L 641 3500 
L 641 4494 
L 1759 4494 
z
" transform="scale(0.015625)"/>
      </defs>
      <use xlink:href="#DejaVuSans-Bold-44"/>
      <use xlink:href="#DejaVuSans-Bold-69" transform="translate(83.007812 0)"/>
      <use xlink:href="#DejaVuSans-Bold-73" transform="translate(117.285156 0)"/>
      <use xlink:href="#DejaVuSans-Bold-70" transform="translate(176.806641 0)"/>
      <use xlink:href="#DejaVuSans-Bold-6c" transform="translate(248.388672 0)"/>
      <use xlink:href="#DejaVuSans-Bold-61" transform="translate(282.666016 0)"/>
      <use xlink:href="#DejaVuSans-Bold-63" transform="translate(350.146484 0)"/>
      <use xlink:href="#DejaVuSans-Bold-65" transform="translate(409.423828 0)"/>
      <use xlink:href="#DejaVuSans-Bold-6d" transform="translate(477.246094 0)"/>
      <use xlink:href="#DejaVuSans-Bold-65" transform="translate(581.445312 0)"/>
      <use xlink:href="#DejaVuSans-Bold-6e" transform="translate(649.267578 0)"/>
      <use xlink:href="#DejaVuSans-Bold-74" transform="translate(720.458984 0)"/>
      <use xlink:href="#DejaVuSans-Bold-20" transform="translate(768.261719 0)"/>
      <use xlink:href="#DejaVuSans-Bold-28" transform="translate(803.076172 0)"/>
      <use xlink:href="#DejaVuSans-Bold-6d" transform="translate(848.779297 0)"/>
      <use xlink:href="#DejaVuSans-Bold-29" transform="translate(952.978516 0)"/>
     </g>
    </g>
   </g>
   <g id="matplotlib.axis_4">
    <g id="ytick_1">
     <g id="line2d_11">
      <defs>
       <path id="m51c7680d17" d="M 0 0 
L -7 0 
" style="stroke: #000000; stroke-width: 1.5"/>
      </defs>
      <g>
       <use xlink:href="#m51c7680d17" x="210.62" y="293.08" style="stroke: #000000; stroke-width: 1.5"/>
      </g>
     </g>
     <g id="text_13">
      <!-- 16.00 -->
      <g transform="translate(59.612344 309.416641) scale(0.43 -0.43)">
       <defs>
        <path id="DejaVuSans-Bold-2e" d="M 653 1209 
L 1778 1209 
L 1778 0 
L 653 0 
L 653 1209 
z
" transform="scale(0.015625)"/>
       </defs>
       <use xlink:href="#DejaVuSans-Bold-31"/>
       <use xlink:href="#DejaVuSans-Bold-36" transform="translate(69.580078 0)"/>
       <use xlink:href="#DejaVuSans-Bold-2e" transform="translate(139.160156 0)"/>
       <use xlink:href="#DejaVuSans-Bold-30" transform="translate(177.148438 0)"/>
       <use xlink:href="#DejaVuSans-Bold-30" transform="translate(246.728516 0)"/>
      </g>
     </g>
    </g>
    <g id="ytick_2">
     <g id="line2d_12">
      <g>
       <use xlink:href="#m51c7680d17" x="210.62" y="248.793333" style="stroke: #000000; stroke-width: 1.5"/>
      </g>
     </g>
     <g id="text_14">
      <!-- 17.00 -->
      <g transform="translate(59.612344 265.129974) scale(0.43 -0.43)">
       <defs>
        <path id="DejaVuSans-Bold-37" d="M 428 4666 
L 3944 4666 
L 3944 3988 
L 2125 0 
L 953 0 
L 2675 3781 
L 428 3781 
L 428 4666 
z
" transform="scale(0.015625)"/>
       </defs>
       <use xlink:href="#DejaVuSans-Bold-31"/>
       <use xlink:href="#DejaVuSans-Bold-37" transform="translate(69.580078 0)"/>
       <use xlink:href="#DejaVuSans-Bold-2e" transform="translate(139.160156 0)"/>
       <use xlink:href="#DejaVuSans-Bold-30" transform="translate(177.148438 0)"/>
       <use xlink:href="#DejaVuSans-Bold-30" transform="translate(246.728516 0)"/>
      </g>
     </g>
    </g>
    <g id="ytick_3">
     <g id="line2d_13">
      <g>
       <use xlink:href="#m51c7680d17" x="210.62" y="204.0638" style="stroke: #000000; stroke-width: 1.5"/>
      </g>
     </g>
     <g id="text_15">
      <!-- 18.01 -->
      <g transform="translate(59.612344 220.400441) scale(0.43 -0.43)">
       <use xlink:href="#DejaVuSans-Bold-31"/>
       <use xlink:href="#DejaVuSans-Bold-38" transform="translate(69.580078 0)"/>
       <use xlink:href="#DejaVuSans-Bold-2e" transform="translate(139.160156 0)"/>
       <use xlink:href="#DejaVuSans-Bold-30" transform="translate(177.148438 0)"/>
       <use xlink:href="#DejaVuSans-Bold-31" transform="translate(246.728516 0)"/>
      </g>
     </g>
    </g>
    <g id="ytick_4">
     <g id="line2d_14">
      <g>
       <use xlink:href="#m51c7680d17" x="210.62" y="160.22" style="stroke: #000000; stroke-width: 1.5"/>
      </g>
     </g>
     <g id="text_16">
      <!-- 19.00 -->
      <g transform="translate(59.612344 176.556641) scale(0.43 -0.43)">
       <defs>
        <path id="DejaVuSans-Bold-39" d="M 641 103 
L 641 966 
Q 928 831 1190 764 
Q 1453 697 1709 697 
Q 2247 697 2547 995 
Q 2847 1294 2900 1881 
Q 2688 1725 2447 1647 
Q 2206 1569 1925 1569 
Q 1209 1569 770 1986 
Q 331 2403 331 3084 
Q 331 3838 820 4291 
Q 1309 4744 2131 4744 
Q 3044 4744 3544 4128 
Q 4044 3513 4044 2388 
Q 4044 1231 3459 570 
Q 2875 -91 1856 -91 
Q 1528 -91 1228 -42 
Q 928 6 641 103 
z
M 2125 2350 
Q 2441 2350 2600 2554 
Q 2759 2759 2759 3169 
Q 2759 3575 2600 3781 
Q 2441 3988 2125 3988 
Q 1809 3988 1650 3781 
Q 1491 3575 1491 3169 
Q 1491 2759 1650 2554 
Q 1809 2350 2125 2350 
z
" transform="scale(0.015625)"/>
       </defs>
       <use xlink:href="#DejaVuSans-Bold-31"/>
       <use xlink:href="#DejaVuSans-Bold-39" transform="translate(69.580078 0)"/>
       <use xlink:href="#DejaVuSans-Bold-2e" transform="translate(139.160156 0)"/>
       <use xlink:href="#DejaVuSans-Bold-30" transform="translate(177.148438 0)"/>
       <use xlink:href="#DejaVuSans-Bold-30" transform="translate(246.728516 0)"/>
      </g>
     </g>
    </g>
    <g id="ytick_5">
     <g id="line2d_15">
      <g>
       <use xlink:href="#m51c7680d17" x="210.62" y="115.933333" style="stroke: #000000; stroke-width: 1.5"/>
      </g>
     </g>
     <g id="text_17">
      <!-- 20.00 -->
      <g transform="translate(59.612344 132.269974) scale(0.43 -0.43)">
       <use xlink:href="#DejaVuSans-Bold-32"/>
       <use xlink:href="#DejaVuSans-Bold-30" transform="translate(69.580078 0)"/>
       <use xlink:href="#DejaVuSans-Bold-2e" transform="translate(139.160156 0)"/>
       <use xlink:href="#DejaVuSans-Bold-30" transform="translate(177.148438 0)"/>
       <use xlink:href="#DejaVuSans-Bold-30" transform="translate(246.728516 0)"/>
      </g>
     </g>
    </g>
    <g id="ytick_6">
     <g id="line2d_16">
      <g>
       <use xlink:href="#m51c7680d17" x="210.62" y="71.646667" style="stroke: #000000; stroke-width: 1.5"/>
      </g>
     </g>
     <g id="text_18">
      <!-- 21.00 -->
      <g transform="translate(59.612344 87.983307) scale(0.43 -0.43)">
       <use xlink:href="#DejaVuSans-Bold-32"/>
       <use xlink:href="#DejaVuSans-Bold-31" transform="translate(69.580078 0)"/>
       <use xlink:href="#DejaVuSans-Bold-2e" transform="translate(139.160156 0)"/>
       <use xlink:href="#DejaVuSans-Bold-30" transform="translate(177.148438 0)"/>
       <use xlink:href="#DejaVuSans-Bold-30" transform="translate(246.728516 0)"/>
      </g>
     </g>
    </g>
    <g id="ytick_7">
     <g id="line2d_17">
      <g>
       <use xlink:href="#m51c7680d17" x="210.62" y="27.36" style="stroke: #000000; stroke-width: 1.5"/>
      </g>
     </g>
     <g id="text_19">
      <!-- 22.00 -->
      <g transform="translate(59.612344 43.696641) scale(0.43 -0.43)">
       <use xlink:href="#DejaVuSans-Bold-32"/>
       <use xlink:href="#DejaVuSans-Bold-32" transform="translate(69.580078 0)"/>
       <use xlink:href="#DejaVuSans-Bold-2e" transform="translate(139.160156 0)"/>
       <use xlink:href="#DejaVuSans-Bold-30" transform="translate(177.148438 0)"/>
       <use xlink:href="#DejaVuSans-Bold-30" transform="translate(246.728516 0)"/>
      </g>
     </g>
    </g>
    <g id="text_20">
     <!-- Velocity (m/s) -->
     <g transform="translate(37.844219 299.849375) rotate(-90) scale(0.36 -0.36)">
      <defs>
       <path id="DejaVuSans-Bold-56" d="M 31 4666 
L 1241 4666 
L 2478 1222 
L 3713 4666 
L 4922 4666 
L 3194 0 
L 1759 0 
L 31 4666 
z
" transform="scale(0.015625)"/>
       <path id="DejaVuSans-Bold-6f" d="M 2203 2784 
Q 1831 2784 1636 2517 
Q 1441 2250 1441 1747 
Q 1441 1244 1636 976 
Q 1831 709 2203 709 
Q 2569 709 2762 976 
Q 2956 1244 2956 1747 
Q 2956 2250 2762 2517 
Q 2569 2784 2203 2784 
z
M 2203 3584 
Q 3106 3584 3614 3096 
Q 4122 2609 4122 1747 
Q 4122 884 3614 396 
Q 3106 -91 2203 -91 
Q 1297 -91 786 396 
Q 275 884 275 1747 
Q 275 2609 786 3096 
Q 1297 3584 2203 3584 
z
" transform="scale(0.015625)"/>
       <path id="DejaVuSans-Bold-2f" d="M 1644 4666 
L 2338 4666 
L 691 -594 
L 0 -594 
L 1644 4666 
z
" transform="scale(0.015625)"/>
      </defs>
      <use xlink:href="#DejaVuSans-Bold-56"/>
      <use xlink:href="#DejaVuSans-Bold-65" transform="translate(71.892578 0)"/>
      <use xlink:href="#DejaVuSans-Bold-6c" transform="translate(139.714844 0)"/>
      <use xlink:href="#DejaVuSans-Bold-6f" transform="translate(173.992188 0)"/>
      <use xlink:href="#DejaVuSans-Bold-63" transform="translate(242.693359 0)"/>
      <use xlink:href="#DejaVuSans-Bold-69" transform="translate(301.970703 0)"/>
      <use xlink:href="#DejaVuSans-Bold-74" transform="translate(336.248047 0)"/>
      <use xlink:href="#DejaVuSans-Bold-79" transform="translate(384.050781 0)"/>
      <use xlink:href="#DejaVuSans-Bold-20" transform="translate(449.236328 0)"/>
      <use xlink:href="#DejaVuSans-Bold-28" transform="translate(484.050781 0)"/>
      <use xlink:href="#DejaVuSans-Bold-6d" transform="translate(529.753906 0)"/>
      <use xlink:href="#DejaVuSans-Bold-2f" transform="translate(633.953125 0)"/>
      <use xlink:href="#DejaVuSans-Bold-73" transform="translate(670.476562 0)"/>
      <use xlink:href="#DejaVuSans-Bold-29" transform="translate(729.998047 0)"/>
     </g>
    </g>
   </g>
   <g id="line2d_18">
    <path d="M 210.62 115.933333 
L 1240.245 115.933333 
L 1240.245 115.933333 
" clip-path="url(#p86b7ab33f4)" style="fill: none; stroke: #d62728; stroke-opacity: 0.85; stroke-width: 2; stroke-linecap: square"/>
   </g>
   <g id="line2d_19">
    <path d="M 210.62 248.793333 
L 1240.245 248.793333 
L 1240.245 248.793333 
" clip-path="url(#p86b7ab33f4)" style="fill: none; stroke-dasharray: 7.4,3.2; stroke-dashoffset: 0; stroke: #d62728; stroke-opacity: 0.85; stroke-width: 2"/>
   </g>
   <g id="patch_5">
    <path d="M 210.62 293.08 
L 210.62 27.36 
" style="fill: none; stroke: #000000; stroke-width: 1.5; stroke-linejoin: miter; stroke-linecap: square"/>
   </g>
   <g id="patch_6">
    <path d="M 1240.245 293.08 
L 1240.245 27.36 
" style="fill: none; stroke: #000000; stroke-width: 1.5; stroke-linejoin: miter; stroke-linecap: square"/>
   </g>
   <g id="patch_7">
    <path d="M 210.62 293.08 
L 1240.245 293.08 
" style="fill: none; stroke: #000000; stroke-width: 1.5; stroke-linejoin: miter; stroke-linecap: square"/>
   </g>
   <g id="patch_8">
    <path d="M 210.62 27.36 
L 1240.245 27.36 
" style="fill: none; stroke: #000000; stroke-width: 1.5; stroke-linejoin: miter; stroke-linecap: square"/>
   </g>
   <g id="line2d_20">
    <path d="M 229.15325 204.0638 
L 229.15325 204.0638 
L 419.633875 174.391733 
L 497.2676 164.2058 
L 537.422975 128.776467 
L 558.118438 111.0618 
L 579.328713 93.347133 
L 622.367038 75.1896 
L 644.092125 66.332267 
L 665.817213 65.8894 
L 709.576275 56.5892 
L 731.61025 56.146333 
L 753.541263 55.703467 
L 775.781163 46.846133 
L 798.021062 46.403267 
L 842.089012 59.2464 
L 885.024375 85.8184 
L 926.621225 112.3904 
L 947.0078 125.6764 
L 986.854288 152.2484 
L 986.854288 152.2484 
L 1006.3142 165.5344 
L 1006.3142 165.5344 
L 1025.362263 178.8204 
L 1044.2044 192.1064 
L 1080.962013 218.6784 
L 1116.381113 245.2504 
" clip-path="url(#p86b7ab33f4)" style="fill: none; stroke: #1f77b4; stroke-width: 2.6; stroke-linecap: square"/>
   </g>
   <g id="line2d_21">
    <path d="M 229.15325 204.0638 
L 229.15325 204.0638 
L 419.633875 174.391733 
L 497.2676 164.2058 
L 537.422975 128.776467 
L 558.118438 111.0618 
L 579.328713 93.347133 
L 622.367038 75.1896 
L 644.092125 66.332267 
L 665.817213 65.8894 
L 709.576275 56.5892 
L 731.61025 56.146333 
L 753.541263 55.703467 
L 775.781163 46.846133 
L 798.021062 46.403267 
L 842.089012 59.2464 
L 885.024375 85.8184 
L 926.621225 112.3904 
L 947.0078 125.6764 
L 986.854288 152.2484 
L 986.854288 152.2484 
L 1006.3142 165.5344 
L 1006.3142 165.5344 
L 1025.362263 178.8204 
L 1044.2044 192.1064 
L 1080.962013 218.6784 
L 1116.381113 245.2504 
" clip-path="url(#p86b7ab33f4)" style="fill: none; stroke: #1f77b4; stroke-width: 2.6; stroke-linecap: square"/>
   </g>
   <g id="PathCollection_1">
    <defs>
     <path id="m9461ab0cc6" d="M 0 -20 
L -20 20 
L 20 20 
z
" style="stroke: #000000; stroke-width: 0.9"/>
    </defs>
    <g clip-path="url(#p86b7ab33f4)">
     <use xlink:href="#m9461ab0cc6" x="229.15325" y="204.0638" style="fill: #2ca02c; stroke: #000000; stroke-width: 0.9"/>
     <use xlink:href="#m9461ab0cc6" x="709.576275" y="56.5892" style="fill: #2ca02c; stroke: #000000; stroke-width: 0.9"/>
     <use xlink:href="#m9461ab0cc6" x="947.0078" y="125.6764" style="fill: #2ca02c; stroke: #000000; stroke-width: 0.9"/>
    </g>
   </g>
   <g id="PathCollection_2">
    <defs>
     <path id="mf82f16eaf8" d="M 0 -20 
L -20 20 
L 20 20 
z
" style="stroke: #000000; stroke-width: 0.9"/>
    </defs>
    <g clip-path="url(#p86b7ab33f4)">
     <use xlink:href="#mf82f16eaf8" x="885.024375" y="85.8184" style="fill: #ff7f0e; stroke: #000000; stroke-width: 0.9"/>
     <use xlink:href="#mf82f16eaf8" x="986.854288" y="152.2484" style="fill: #ff7f0e; stroke: #000000; stroke-width: 0.9"/>
    </g>
   </g>
   <g id="PathCollection_3">
    <defs>
     <path id="m6733be9de5" d="M -6.373774 12.747549 
L 0 6.373774 
L 6.373774 12.747549 
L 12.747549 6.373774 
L 6.373774 0 
L 12.747549 -6.373774 
L 6.373774 -12.747549 
L 0 -6.373774 
L -6.373774 -12.747549 
L -12.747549 -6.373774 
L -6.373774 0 
L -12.747549 6.373774 
z
" style="stroke: #000000; stroke-width: 1.5"/>
    </defs>
    <g clip-path="url(#p86b7ab33f4)">
     <use xlink:href="#m6733be9de5" x="229.15325" y="204.0638" style="fill: #d62728; stroke: #000000; stroke-width: 1.5"/>
     <use xlink:href="#m6733be9de5" x="419.633875" y="174.391733" style="fill: #d62728; stroke: #000000; stroke-width: 1.5"/>
     <use xlink:href="#m6733be9de5" x="644.092125" y="66.332267" style="fill: #d62728; stroke: #000000; stroke-width: 1.5"/>
     <use xlink:href="#m6733be9de5" x="731.61025" y="56.146333" style="fill: #d62728; stroke: #000000; stroke-width: 1.5"/>
     <use xlink:href="#m6733be9de5" x="986.854288" y="152.2484" style="fill: #d62728; stroke: #000000; stroke-width: 1.5"/>
     <use xlink:href="#m6733be9de5" x="1006.3142" y="165.5344" style="fill: #d62728; stroke: #000000; stroke-width: 1.5"/>
     <use xlink:href="#m6733be9de5" x="1025.362263" y="178.8204" style="fill: #d62728; stroke: #000000; stroke-width: 1.5"/>
    </g>
   </g>
  </g>
 </g>
 <defs>
  <clipPath id="p86b7ab33f4">
   <rect x="210.62" y="27.36" width="1029.625" height="265.72"/>
  </clipPath>
 </defs>
</svg>
