<?xml version="1.0" encoding="utf-8" standalone="no"?>
<!DOCTYPE svg PUBLIC "-//W3C//DTD SVG 1.1//EN"
  "http://www.w3.org/Graphics/SVG/1.1/DTD/svg11.dtd">
<svg xmlns:xlink="http://www.w3.org/1999/xlink" width="1296pt" height="576pt" viewBox="0 0 1296 576" xmlns="http://www.w3.org/2000/svg" version="1.1">
 <metadata>
  <rdf:RDF xmlns:dc="http://purl.org/dc/elements/1.1/" xmlns:cc="http://creativecommons.org/ns#" xmlns:rdf="http://www.w3.org/1999/02/22-rdf-syntax-ns#">
   <cc:Work>
    <dc:type rdf:resource="http://purl.org/dc/dcmitype/StillImage"/>
    <dc:date>2026-03-08T00:38:05.230057</dc:date>
    <dc:format>image/svg+xml</dc:format>
    <dc:creator>
     <cc:Agent>
      <dc:title>Matplotlib v3.10.8, https://matplotlib.org/</dc:title>
     </cc:Agent>
    </dc:creator>
   </cc:Work>
  </rdf:RDF>
 </metadata>
 <defs>
  <style type="text/css">*{stroke-linejoin: round; stroke-linecap: butt}</style>
 </defs>
 <g id="figure_1">
  <g id="patch_1">
   <path d="M 0 576 
L 1296 576 
L 1296 0 
L 0 0 
z
" style="fill: #ffffff"/>
  </g>
  <g id="axes_1">
   <g id="patch_2">
    <path d="M 98.3 403.22 
L 1253.88 403.22 
L 1253.88 10.8 
L 98.3 10.8 
z
" style="fill: #ffffff"/>
   </g>
   <g id="axes_2">
    <g id="patch_3">
     <path d="M 98.3 403.22 
L 1253.88 403.22 
L 1253.88 403.22 
L 98.3 403.22 
z
" style="fill: #ffffff"/>
    </g>
    <g id="matplotlib.axis_1">
     <g id="xtick_1">
      <g id="line2d_1">
       <defs>
        <path id="m038d383114" d="M 0 0 
L 0 8 
" style="stroke: #000000; stroke-width: 2"/>
       </defs>
       <g>
        <use xlink:href="#m038d383114" x="119.10044" y="468.22" style="stroke: #000000; stroke-width: 2"/>
       </g>
      </g>
      <g id="text_1">
       <!-- 0s -->
       <g transform="translate(99.736377 502.515313) scale(0.3 -0.3)">
        <defs>
         <path id="DejaVuSans-Bold-30" d="M 2944 2338 
Q 2944 3213 2780 3570 
Q 2616 3928 2228 3928 
Q 1841 3928 1675 3570 
Q 1509 3213 1509 2338 
Q 1509 1453 1675 1090 
Q 1841 728 2228 728 
Q 2613 728 2778 1090 
Q 2944 1453 2944 2338 
z
M 4147 2328 
Q 4147 1169 3647 539 
Q 3147 -91 2228 -91 
Q 1306 -91 806 539 
Q 306 1169 306 2328 
Q 306 3491 806 4120 
Q 1306 4750 2228 4750 
Q 3147 4750 3647 4120 
Q 4147 3491 4147 2328 
z
" transform="scale(0.015625)"/>
         <path id="DejaVuSans-Bold-73" d="M 3272 3391 
L 3272 2541 
Q 2913 2691 2578 2766 
Q 2244 2841 1947 2841 
Q 1628 2841 1473 2761 
Q 1319 2681 1319 2516 
Q 1319 2381 1436 2309 
Q 1553 2238 1856 2203 
L 2053 2175 
Q 2913 2066 3209 1816 
Q 3506 1566 3506 1031 
Q 3506 472 3093 190 
Q 2681 -91 1863 -91 
Q 1516 -91 1145 -36 
Q 775 19 384 128 
L 384 978 
Q 719 816 1070 734 
Q 1422 653 1784 653 
Q 2113 653 2278 743 
Q 2444 834 2444 1013 
Q 2444 1163 2330 1236 
Q 2216 1309 1875 1350 
L 1678 1375 
Q 931 1469 631 1722 
Q 331 1975 331 2491 
Q 331 3047 712 3315 
Q 1094 3584 1881 3584 
Q 2191 3584 2531 3537 
Q 2872 3491 3272 3391 
z
" transform="scale(0.015625)"/>
        </defs>
        <use xlink:href="#DejaVuSans-Bold-30"/>
        <use xlink:href="#DejaVuSans-Bold-73" transform="translate(69.580078 0)"/>
       </g>
      </g>
     </g>
     <g id="xtick_2">
      <g id="line2d_2">
       <g>
        <use xlink:href="#m038d383114" x="290.907349" y="468.22" style="stroke: #000000; stroke-width: 2"/>
       </g>
      </g>
      <g id="text_2">
       <!-- 1s -->
       <g transform="translate(271.543287 502.515313) scale(0.3 -0.3)">
        <defs>
         <path id="DejaVuSans-Bold-31" d="M 750 831 
L 1813 831 
L 1813 3847 
L 722 3622 
L 722 4441 
L 1806 4666 
L 2950 4666 
L 2950 831 
L 4013 831 
L 4013 0 
L 750 0 
L 750 831 
z
" transform="scale(0.015625)"/>
        </defs>
        <use xlink:href="#DejaVuSans-Bold-31"/>
        <use xlink:href="#DejaVuSans-Bold-73" transform="translate(69.580078 0)"/>
       </g>
      </g>
     </g>
     <g id="xtick_3">
      <g id="line2d_3">
       <g>
        <use xlink:href="#m038d383114" x="488.24176" y="468.22" style="stroke: #000000; stroke-width: 2"/>
       </g>
      </g>
      <g id="text_3">
       <!-- 2s -->
       <g transform="translate(468.877697 502.515313) scale(0.3 -0.3)">
        <defs>
         <path id="DejaVuSans-Bold-32" d="M 1844 884 
L 3897 884 
L 3897 0 
L 506 0 
L 506 884 
L 2209 2388 
Q 2438 2594 2547 2791 
Q 2656 2988 2656 3200 
Q 2656 3528 2436 3728 
Q 2216 3928 1850 3928 
Q 1569 3928 1234 3808 
Q 900 3688 519 3450 
L 519 4475 
Q 925 4609 1322 4679 
Q 1719 4750 2100 4750 
Q 2938 4750 3402 4381 
Q 3866 4013 3866 3353 
Q 3866 2972 3669 2642 
Q 3472 2313 2841 1759 
L 1844 884 
z
" transform="scale(0.015625)"/>
        </defs>
        <use xlink:href="#DejaVuSans-Bold-32"/>
        <use xlink:href="#DejaVuSans-Bold-73" transform="translate(69.580078 0)"/>
       </g>
      </g>
     </g>
     <g id="xtick_4">
      <g id="line2d_4">
       <g>
        <use xlink:href="#m038d383114" x="684.713917" y="468.22" style="stroke: #000000; stroke-width: 2"/>
       </g>
      </g>
      <g id="text_4">
       <!-- 3s -->
       <g transform="translate(665.349855 502.515313) scale(0.3 -0.3)">
        <defs>
         <path id="DejaVuSans-Bold-33" d="M 2981 2516 
Q 3453 2394 3698 2092 
Q 3944 1791 3944 1325 
Q 3944 631 3412 270 
Q 2881 -91 1863 -91 
Q 1503 -91 1142 -33 
Q 781 25 428 141 
L 428 1069 
Q 766 900 1098 814 
Q 1431 728 1753 728 
Q 2231 728 2486 893 
Q 2741 1059 2741 1369 
Q 2741 1688 2480 1852 
Q 2219 2016 1709 2016 
L 1228 2016 
L 1228 2791 
L 1734 2791 
Q 2188 2791 2409 2933 
Q 2631 3075 2631 3366 
Q 2631 3634 2415 3781 
Q 2200 3928 1806 3928 
Q 1516 3928 1219 3862 
Q 922 3797 628 3669 
L 628 4550 
Q 984 4650 1334 4700 
Q 1684 4750 2022 4750 
Q 2931 4750 3382 4451 
Q 3834 4153 3834 3553 
Q 3834 3144 3618 2883 
Q 3403 2622 2981 2516 
z
" transform="scale(0.015625)"/>
        </defs>
        <use xlink:href="#DejaVuSans-Bold-33"/>
        <use xlink:href="#DejaVuSans-Bold-73" transform="translate(69.580078 0)"/>
       </g>
      </g>
     </g>
     <g id="xtick_5">
      <g id="line2d_5">
       <g>
        <use xlink:href="#m038d383114" x="898.527093" y="468.22" style="stroke: #000000; stroke-width: 2"/>
       </g>
      </g>
      <g id="text_5">
       <!-- 4s -->
       <g transform="translate(879.163031 502.515313) scale(0.3 -0.3)">
        <defs>
         <path id="DejaVuSans-Bold-34" d="M 2356 3675 
L 1038 1722 
L 2356 1722 
L 2356 3675 
z
M 2156 4666 
L 3494 4666 
L 3494 1722 
L 4159 1722 
L 4159 850 
L 3494 850 
L 3494 0 
L 2356 0 
L 2356 850 
L 288 850 
L 288 1881 
L 2156 4666 
z
" transform="scale(0.015625)"/>
        </defs>
        <use xlink:href="#DejaVuSans-Bold-34"/>
        <use xlink:href="#DejaVuSans-Bold-73" transform="translate(69.580078 0)"/>
       </g>
      </g>
     </g>
     <g id="xtick_6">
      <g id="line2d_6">
       <g>
        <use xlink:href="#m038d383114" x="1089.35556" y="468.22" style="stroke: #000000; stroke-width: 2"/>
       </g>
      </g>
      <g id="text_6">
       <!-- 5s -->
       <g transform="translate(1069.991497 502.515313) scale(0.3 -0.3)">
        <defs>
         <path id="DejaVuSans-Bold-35" d="M 678 4666 
L 3669 4666 
L 3669 3781 
L 1638 3781 
L 1638 3059 
Q 1775 3097 1914 3117 
Q 2053 3138 2203 3138 
Q 3056 3138 3531 2711 
Q 4006 2284 4006 1522 
Q 4006 766 3489 337 
Q 2972 -91 2053 -91 
Q 1656 -91 1267 -14 
Q 878 63 494 219 
L 494 1166 
Q 875 947 1217 837 
Q 1559 728 1863 728 
Q 2300 728 2551 942 
Q 2803 1156 2803 1522 
Q 2803 1891 2551 2103 
Q 2300 2316 1863 2316 
Q 1603 2316 1309 2248 
Q 1016 2181 678 2041 
L 678 4666 
z
" transform="scale(0.015625)"/>
        </defs>
        <use xlink:href="#DejaVuSans-Bold-35"/>
        <use xlink:href="#DejaVuSans-Bold-73" transform="translate(69.580078 0)"/>
       </g>
      </g>
     </g>
     <g id="text_7">
      <!-- Time (s) -->
      <g transform="translate(607.050156 556.549688) scale(0.3 -0.3)">
       <defs>
        <path id="DejaVuSans-Bold-54" d="M 31 4666 
L 4331 4666 
L 4331 3756 
L 2784 3756 
L 2784 0 
L 1581 0 
L 1581 3756 
L 31 3756 
L 31 4666 
z
" transform="scale(0.015625)"/>
        <path id="DejaVuSans-Bold-69" d="M 538 3500 
L 1656 3500 
L 1656 0 
L 538 0 
L 538 3500 
z
M 538 4863 
L 1656 4863 
L 1656 3950 
L 538 3950 
L 538 4863 
z
" transform="scale(0.015625)"/>
        <path id="DejaVuSans-Bold-6d" d="M 3781 2919 
Q 3994 3244 4286 3414 
Q 4578 3584 4928 3584 
Q 5531 3584 5847 3212 
Q 6163 2841 6163 2131 
L 6163 0 
L 5038 0 
L 5038 1825 
Q 5041 1866 5042 1909 
Q 5044 1953 5044 2034 
Q 5044 2406 4934 2573 
Q 4825 2741 4581 2741 
Q 4263 2741 4089 2478 
Q 3916 2216 3909 1719 
L 3909 0 
L 2784 0 
L 2784 1825 
Q 2784 2406 2684 2573 
Q 2584 2741 2328 2741 
Q 2006 2741 1831 2477 
Q 1656 2213 1656 1722 
L 1656 0 
L 531 0 
L 531 3500 
L 1656 3500 
L 1656 2988 
Q 1863 3284 2130 3434 
Q 2397 3584 2719 3584 
Q 3081 3584 3359 3409 
Q 3638 3234 3781 2919 
z
" transform="scale(0.015625)"/>
        <path id="DejaVuSans-Bold-65" d="M 4031 1759 
L 4031 1441 
L 1416 1441 
Q 1456 1047 1700 850 
Q 1944 653 2381 653 
Q 2734 653 3104 758 
Q 3475 863 3866 1075 
L 3866 213 
Q 3469 63 3072 -14 
Q 2675 -91 2278 -91 
Q 1328 -91 801 392 
Q 275 875 275 1747 
Q 275 2603 792 3093 
Q 1309 3584 2216 3584 
Q 3041 3584 3536 3087 
Q 4031 2591 4031 1759 
z
M 2881 2131 
Q 2881 2450 2695 2645 
Q 2509 2841 2209 2841 
Q 1884 2841 1681 2658 
Q 1478 2475 1428 2131 
L 2881 2131 
z
" transform="scale(0.015625)"/>
        <path id="DejaVuSans-Bold-20" transform="scale(0.015625)"/>
        <path id="DejaVuSans-Bold-28" d="M 2413 -844 
L 1484 -844 
Q 1006 -72 778 623 
Q 550 1319 550 2003 
Q 550 2688 779 3389 
Q 1009 4091 1484 4856 
L 2413 4856 
Q 2013 4116 1813 3408 
Q 1613 2700 1613 2009 
Q 1613 1319 1811 609 
Q 2009 -100 2413 -844 
z
" transform="scale(0.015625)"/>
        <path id="DejaVuSans-Bold-29" d="M 513 -844 
Q 913 -100 1113 609 
Q 1313 1319 1313 2009 
Q 1313 2700 1113 3408 
Q 913 4116 513 4856 
L 1441 4856 
Q 1916 4091 2145 3389 
Q 2375 2688 2375 2003 
Q 2375 1319 2147 623 
Q 1919 -72 1441 -844 
L 513 -844 
z
" transform="scale(0.015625)"/>
       </defs>
       <use xlink:href="#DejaVuSans-Bold-54"/>
       <use xlink:href="#DejaVuSans-Bold-69" transform="translate(68.212891 0)"/>
       <use xlink:href="#DejaVuSans-Bold-6d" transform="translate(102.490234 0)"/>
       <use xlink:href="#DejaVuSans-Bold-65" transform="translate(206.689453 0)"/>
       <use xlink:href="#DejaVuSans-Bold-20" transform="translate(274.511719 0)"/>
       <use xlink:href="#DejaVuSans-Bold-28" transform="translate(309.326172 0)"/>
       <use xlink:href="#DejaVuSans-Bold-73" transform="translate(355.029297 0)"/>
       <use xlink:href="#DejaVuSans-Bold-29" transform="translate(414.550781 0)"/>
      </g>
     </g>
    </g>
    <g id="matplotlib.axis_2"/>
    <g id="patch_4">
     <path d="M 98.3 468.22 
L 1253.88 468.22 
" style="fill: none; stroke: #000000; stroke-width: 1.5; stroke-linejoin: miter; stroke-linecap: square"/>
    </g>
   </g>
   <g id="matplotlib.axis_3">
    <g id="xtick_7">
     <g id="line2d_7">
      <g>
       <use xlink:href="#m038d383114" x="98.3" y="403.22" style="stroke: #000000; stroke-width: 2"/>
      </g>
     </g>
     <g id="text_8">
      <!-- 0 -->
      <g transform="translate(87.863281 437.515313) scale(0.3 -0.3)">
       <use xlink:href="#DejaVuSans-Bold-30"/>
      </g>
     </g>
    </g>
    <g id="xtick_8">
     <g id="line2d_8">
      <g>
       <use xlink:href="#m038d383114" x="329.416" y="403.22" style="stroke: #000000; stroke-width: 2"/>
      </g>
     </g>
     <g id="text_9">
      <!-- 20 -->
      <g transform="translate(308.542563 437.515313) scale(0.3 -0.3)">
       <use xlink:href="#DejaVuSans-Bold-32"/>
       <use xlink:href="#DejaVuSans-Bold-30" transform="translate(69.580078 0)"/>
      </g>
     </g>
    </g>
    <g id="xtick_9">
     <g id="line2d_9">
      <g>
       <use xlink:href="#m038d383114" x="560.532" y="403.22" style="stroke: #000000; stroke-width: 2"/>
      </g>
     </g>
     <g id="text_10">
      <!-- 40 -->
      <g transform="translate(539.658563 437.515313) scale(0.3 -0.3)">
       <use xlink:href="#DejaVuSans-Bold-34"/>
       <use xlink:href="#DejaVuSans-Bold-30" transform="translate(69.580078 0)"/>
      </g>
     </g>
    </g>
    <g id="xtick_10">
     <g id="line2d_10">
      <g>
       <use xlink:href="#m038d383114" x="791.648" y="403.22" style="stroke: #000000; stroke-width: 2"/>
      </g>
     </g>
     <g id="text_11">
      <!-- 60 -->
      <g transform="translate(770.774563 437.515313) scale(0.3 -0.3)">
       <defs>
        <path id="DejaVuSans-Bold-36" d="M 2316 2303 
Q 2000 2303 1842 2098 
Q 1684 1894 1684 1484 
Q 1684 1075 1842 870 
Q 2000 666 2316 666 
Q 2634 666 2792 870 
Q 2950 1075 2950 1484 
Q 2950 1894 2792 2098 
Q 2634 2303 2316 2303 
z
M 3803 4544 
L 3803 3681 
Q 3506 3822 3243 3889 
Q 2981 3956 2731 3956 
Q 2194 3956 1894 3657 
Q 1594 3359 1544 2772 
Q 1750 2925 1990 3001 
Q 2231 3078 2516 3078 
Q 3231 3078 3670 2659 
Q 4109 2241 4109 1563 
Q 4109 813 3618 361 
Q 3128 -91 2303 -91 
Q 1394 -91 895 523 
Q 397 1138 397 2266 
Q 397 3422 980 4083 
Q 1563 4744 2578 4744 
Q 2900 4744 3203 4694 
Q 3506 4644 3803 4544 
z
" transform="scale(0.015625)"/>
       </defs>
       <use xlink:href="#DejaVuSans-Bold-36"/>
       <use xlink:href="#DejaVuSans-Bold-30" transform="translate(69.580078 0)"/>
      </g>
     </g>
    </g>
    <g id="xtick_11">
     <g id="line2d_11">
      <g>
       <use xlink:href="#m038d383114" x="1022.764" y="403.22" style="stroke: #000000; stroke-width: 2"/>
      </g>
     </g>
     <g id="text_12">
      <!-- 80 -->
      <g transform="translate(1001.890563 437.515313) scale(0.3 -0.3)">
       <defs>
        <path id="DejaVuSans-Bold-38" d="M 2228 2088 
Q 1891 2088 1709 1903 
Q 1528 1719 1528 1375 
Q 1528 1031 1709 848 
Q 1891 666 2228 666 
Q 2563 666 2741 848 
Q 2919 1031 2919 1375 
Q 2919 1722 2741 1905 
Q 2563 2088 2228 2088 
z
M 1350 2484 
Q 925 2613 709 2878 
Q 494 3144 494 3541 
Q 494 4131 934 4440 
Q 1375 4750 2228 4750 
Q 3075 4750 3515 4442 
Q 3956 4134 3956 3541 
Q 3956 3144 3739 2878 
Q 3522 2613 3097 2484 
Q 3572 2353 3814 2058 
Q 4056 1763 4056 1313 
Q 4056 619 3595 264 
Q 3134 -91 2228 -91 
Q 1319 -91 855 264 
Q 391 619 391 1313 
Q 391 1763 633 2058 
Q 875 2353 1350 2484 
z
M 1631 3419 
Q 1631 3141 1786 2991 
Q 1941 2841 2228 2841 
Q 2509 2841 2662 2991 
Q 2816 3141 2816 3419 
Q 2816 3697 2662 3845 
Q 2509 3994 2228 3994 
Q 1941 3994 1786 3844 
Q 1631 3694 1631 3419 
z
" transform="scale(0.015625)"/>
       </defs>
       <use xlink:href="#DejaVuSans-Bold-38"/>
       <use xlink:href="#DejaVuSans-Bold-30" transform="translate(69.580078 0)"/>
      </g>
     </g>
    </g>
    <g id="xtick_12">
     <g id="line2d_12">
      <g>
       <use xlink:href="#m038d383114" x="1253.88" y="403.22" style="stroke: #000000; stroke-width: 2"/>
      </g>
     </g>
     <g id="text_13">
      <!-- 100 -->
      <g transform="translate(1222.569844 437.515313) scale(0.3 -0.3)">
       <use xlink:href="#DejaVuSans-Bold-31"/>
       <use xlink:href="#DejaVuSans-Bold-30" transform="translate(69.580078 0)"/>
       <use xlink:href="#DejaVuSans-Bold-30" transform="translate(139.160156 0)"/>
      </g>
     </g>
    </g>
    <g id="text_14">
     <!-- Displacement (m) -->
     <g transform="translate(526.284531 470.549688) scale(0.3 -0.3)">
      <defs>
       <path id="DejaVuSans-Bold-44" d="M 1791 3756 
L 1791 909 
L 2222 909 
Q 2959 909 3348 1275 
Q 3738 1641 3738 2338 
Q 3738 3031 3350 3393 
Q 2963 3756 2222 3756 
L 1791 3756 
z
M 588 4666 
L 1856 4666 
Q 2919 4666 3439 4514 
Q 3959 4363 4331 4000 
Q 4659 3684 4818 3271 
Q 4978 2859 4978 2338 
Q 4978 1809 4818 1395 
Q 4659 981 4331 666 
Q 3956 303 3431 151 
Q 2906 0 1856 0 
L 588 0 
L 588 4666 
z
" transform="scale(0.015625)"/>
       <path id="DejaVuSans-Bold-70" d="M 1656 506 
L 1656 -1331 
L 538 -1331 
L 538 3500 
L 1656 3500 
L 1656 2988 
Q 1888 3294 2169 3439 
Q 2450 3584 2816 3584 
Q 3463 3584 3878 3070 
Q 4294 2556 4294 1747 
Q 4294 938 3878 423 
Q 3463 -91 2816 -91 
Q 2450 -91 2169 54 
Q 1888 200 1656 506 
z
M 2400 2772 
Q 2041 2772 1848 2508 
Q 1656 2244 1656 1747 
Q 1656 1250 1848 986 
Q 2041 722 2400 722 
Q 2759 722 2948 984 
Q 3138 1247 3138 1747 
Q 3138 2247 2948 2509 
Q 2759 2772 2400 2772 
z
" transform="scale(0.015625)"/>
       <path id="DejaVuSans-Bold-6c" d="M 538 4863 
L 1656 4863 
L 1656 0 
L 538 0 
L 538 4863 
z
" transform="scale(0.015625)"/>
       <path id="DejaVuSans-Bold-61" d="M 2106 1575 
Q 1756 1575 1579 1456 
Q 1403 1338 1403 1106 
Q 1403 894 1545 773 
Q 1688 653 1941 653 
Q 2256 653 2472 879 
Q 2688 1106 2688 1447 
L 2688 1575 
L 2106 1575 
z
M 3816 1997 
L 3816 0 
L 2688 0 
L 2688 519 
Q 2463 200 2181 54 
Q 1900 -91 1497 -91 
Q 953 -91 614 226 
Q 275 544 275 1050 
Q 275 1666 698 1953 
Q 1122 2241 2028 2241 
L 2688 2241 
L 2688 2328 
Q 2688 2594 2478 2717 
Q 2269 2841 1825 2841 
Q 1466 2841 1156 2769 
Q 847 2697 581 2553 
L 581 3406 
Q 941 3494 1303 3539 
Q 1666 3584 2028 3584 
Q 2975 3584 3395 3211 
Q 3816 2838 3816 1997 
z
" transform="scale(0.015625)"/>
       <path id="DejaVuSans-Bold-63" d="M 3366 3391 
L 3366 2478 
Q 3138 2634 2908 2709 
Q 2678 2784 2431 2784 
Q 1963 2784 1702 2511 
Q 1441 2238 1441 1747 
Q 1441 1256 1702 982 
Q 1963 709 2431 709 
Q 2694 709 2930 787 
Q 3166 866 3366 1019 
L 3366 103 
Q 3103 6 2833 -42 
Q 2563 -91 2291 -91 
Q 1344 -91 809 395 
Q 275 881 275 1747 
Q 275 2613 809 3098 
Q 1344 3584 2291 3584 
Q 2566 3584 2833 3536 
Q 3100 3488 3366 3391 
z
" transform="scale(0.015625)"/>
       <path id="DejaVuSans-Bold-6e" d="M 4056 2131 
L 4056 0 
L 2931 0 
L 2931 347 
L 2931 1631 
Q 2931 2084 2911 2256 
Q 2891 2428 2841 2509 
Q 2775 2619 2662 2680 
Q 2550 2741 2406 2741 
Q 2056 2741 1856 2470 
Q 1656 2200 1656 1722 
L 1656 0 
L 538 0 
L 538 3500 
L 1656 3500 
L 1656 2988 
Q 1909 3294 2193 3439 
Q 2478 3584 2822 3584 
Q 3428 3584 3742 3212 
Q 4056 2841 4056 2131 
z
" transform="scale(0.015625)"/>
       <path id="DejaVuSans-Bold-74" d="M 1759 4494 
L 1759 3500 
L 2913 3500 
L 2913 2700 
L 1759 2700 
L 1759 1216 
Q 1759 972 1856 886 
Q 1953 800 2241 800 
L 2816 800 
L 2816 0 
L 1856 0 
Q 1194 0 917 276 
Q 641 553 641 1216 
L 641 2700 
L 84 2700 
L 84 3500 
L 641 3500 
L 641 4494 
L 1759 4494 
z
" transform="scale(0.015625)"/>
      </defs>
      <use xlink:href="#DejaVuSans-Bold-44"/>
      <use xlink:href="#DejaVuSans-Bold-69" transform="translate(83.007812 0)"/>
      <use xlink:href="#DejaVuSans-Bold-73" transform="translate(117.285156 0)"/>
      <use xlink:href="#DejaVuSans-Bold-70" transform="translate(176.806641 0)"/>
      <use xlink:href="#DejaVuSans-Bold-6c" transform="translate(248.388672 0)"/>
      <use xlink:href="#DejaVuSans-Bold-61" transform="translate(282.666016 0)"/>
      <use xlink:href="#DejaVuSans-Bold-63" transform="translate(350.146484 0)"/>
      <use xlink:href="#DejaVuSans-Bold-65" transform="translate(409.423828 0)"/>
      <use xlink:href="#DejaVuSans-Bold-6d" transform="translate(477.246094 0)"/>
      <use xlink:href="#DejaVuSans-Bold-65" transform="translate(581.445312 0)"/>
      <use xlink:href="#DejaVuSans-Bold-6e" transform="translate(649.267578 0)"/>
      <use xlink:href="#DejaVuSans-Bold-74" transform="translate(720.458984 0)"/>
      <use xlink:href="#DejaVuSans-Bold-20" transform="translate(768.261719 0)"/>
      <use xlink:href="#DejaVuSans-Bold-28" transform="translate(803.076172 0)"/>
      <use xlink:href="#DejaVuSans-Bold-6d" transform="translate(848.779297 0)"/>
      <use xlink:href="#DejaVuSans-Bold-29" transform="translate(952.978516 0)"/>
     </g>
    </g>
   </g>
   <g id="matplotlib.axis_4">
    <g id="ytick_1">
     <g id="line2d_13">
      <defs>
       <path id="mb7b082ceba" d="M 0 0 
L -8 0 
" style="stroke: #000000; stroke-width: 2"/>
      </defs>
      <g>
       <use xlink:href="#mb7b082ceba" x="98.3" y="403.22" style="stroke: #000000; stroke-width: 2"/>
      </g>
     </g>
     <g id="text_15">
      <!-- 10 -->
      <g transform="translate(45.053125 414.617656) scale(0.3 -0.3)">
       <use xlink:href="#DejaVuSans-Bold-31"/>
       <use xlink:href="#DejaVuSans-Bold-30" transform="translate(69.580078 0)"/>
      </g>
     </g>
    </g>
    <g id="ytick_2">
     <g id="line2d_14">
      <g>
       <use xlink:href="#mb7b082ceba" x="98.3" y="316.015556" style="stroke: #000000; stroke-width: 2"/>
      </g>
     </g>
     <g id="text_16">
      <!-- 12 -->
      <g transform="translate(45.053125 327.413212) scale(0.3 -0.3)">
       <use xlink:href="#DejaVuSans-Bold-31"/>
       <use xlink:href="#DejaVuSans-Bold-32" transform="translate(69.580078 0)"/>
      </g>
     </g>
    </g>
    <g id="ytick_3">
     <g id="line2d_15">
      <g>
       <use xlink:href="#mb7b082ceba" x="98.3" y="228.811111" style="stroke: #000000; stroke-width: 2"/>
      </g>
     </g>
     <g id="text_17">
      <!-- 14 -->
      <g transform="translate(45.053125 240.208767) scale(0.3 -0.3)">
       <use xlink:href="#DejaVuSans-Bold-31"/>
       <use xlink:href="#DejaVuSans-Bold-34" transform="translate(69.580078 0)"/>
      </g>
     </g>
    </g>
    <g id="ytick_4">
     <g id="line2d_16">
      <g>
       <use xlink:href="#mb7b082ceba" x="98.3" y="141.606667" style="stroke: #000000; stroke-width: 2"/>
      </g>
     </g>
     <g id="text_18">
      <!-- 16 -->
      <g transform="translate(45.053125 153.004323) scale(0.3 -0.3)">
       <use xlink:href="#DejaVuSans-Bold-31"/>
       <use xlink:href="#DejaVuSans-Bold-36" transform="translate(69.580078 0)"/>
      </g>
     </g>
    </g>
    <g id="ytick_5">
     <g id="line2d_17">
      <g>
       <use xlink:href="#mb7b082ceba" x="98.3" y="54.402222" style="stroke: #000000; stroke-width: 2"/>
      </g>
     </g>
     <g id="text_19">
      <!-- 18 -->
      <g transform="translate(45.053125 65.799878) scale(0.3 -0.3)">
       <use xlink:href="#DejaVuSans-Bold-31"/>
       <use xlink:href="#DejaVuSans-Bold-38" transform="translate(69.580078 0)"/>
      </g>
     </g>
    </g>
    <g id="text_20">
     <!-- Velocity (m/s) -->
     <g transform="translate(34.579687 323.367813) rotate(-90) scale(0.3 -0.3)">
      <defs>
       <path id="DejaVuSans-Bold-56" d="M 31 4666 
L 1241 4666 
L 2478 1222 
L 3713 4666 
L 4922 4666 
L 3194 0 
L 1759 0 
L 31 4666 
z
" transform="scale(0.015625)"/>
       <path id="DejaVuSans-Bold-6f" d="M 2203 2784 
Q 1831 2784 1636 2517 
Q 1441 2250 1441 1747 
Q 1441 1244 1636 976 
Q 1831 709 2203 709 
Q 2569 709 2762 976 
Q 2956 1244 2956 1747 
Q 2956 2250 2762 2517 
Q 2569 2784 2203 2784 
z
M 2203 3584 
Q 3106 3584 3614 3096 
Q 4122 2609 4122 1747 
Q 4122 884 3614 396 
Q 3106 -91 2203 -91 
Q 1297 -91 786 396 
Q 275 884 275 1747 
Q 275 2609 786 3096 
Q 1297 3584 2203 3584 
z
" transform="scale(0.015625)"/>
       <path id="DejaVuSans-Bold-79" d="M 78 3500 
L 1197 3500 
L 2138 1125 
L 2938 3500 
L 4056 3500 
L 2584 -331 
Q 2363 -916 2067 -1148 
Q 1772 -1381 1288 -1381 
L 641 -1381 
L 641 -647 
L 991 -647 
Q 1275 -647 1404 -556 
Q 1534 -466 1606 -231 
L 1638 -134 
L 78 3500 
z
" transform="scale(0.015625)"/>
       <path id="DejaVuSans-Bold-2f" d="M 1644 4666 
L 2338 4666 
L 691 -594 
L 0 -594 
L 1644 4666 
z
" transform="scale(0.015625)"/>
      </defs>
      <use xlink:href="#DejaVuSans-Bold-56"/>
      <use xlink:href="#DejaVuSans-Bold-65" transform="translate(71.892578 0)"/>
      <use xlink:href="#DejaVuSans-Bold-6c" transform="translate(139.714844 0)"/>
      <use xlink:href="#DejaVuSans-Bold-6f" transform="translate(173.992188 0)"/>
      <use xlink:href="#DejaVuSans-Bold-63" transform="translate(242.693359 0)"/>
      <use xlink:href="#DejaVuSans-Bold-69" transform="translate(301.970703 0)"/>
      <use xlink:href="#DejaVuSans-Bold-74" transform="translate(336.248047 0)"/>
      <use xlink:href="#DejaVuSans-Bold-79" transform="translate(384.050781 0)"/>
      <use xlink:href="#DejaVuSans-Bold-20" transform="translate(449.236328 0)"/>
      <use xlink:href="#DejaVuSans-Bold-28" transform="translate(484.050781 0)"/>
      <use xlink:href="#DejaVuSans-Bold-6d" transform="translate(529.753906 0)"/>
      <use xlink:href="#DejaVuSans-Bold-2f" transform="translate(633.953125 0)"/>
      <use xlink:href="#DejaVuSans-Bold-73" transform="translate(670.476562 0)"/>
      <use xlink:href="#DejaVuSans-Bold-29" transform="translate(729.998047 0)"/>
     </g>
    </g>
   </g>
   <g id="line2d_18">
    <path d="M 1253.88 316.015556 
L 1251.566527 315.929031 
L 1249.253053 315.671904 
L 1246.93958 315.247849 
L 1244.626106 314.660537 
L 1242.312633 313.913641 
L 1238.842422 312.502112 
L 1235.372212 310.752179 
L 1231.902002 308.676235 
L 1228.431792 306.286676 
L 1224.961582 303.595897 
L 1221.491371 300.616293 
L 1218.021161 297.36026 
L 1214.550951 293.840192 
L 1211.080741 290.068484 
L 1206.453794 284.669523 
L 1201.826847 278.87462 
L 1197.1999 272.713154 
L 1192.572953 266.214507 
L 1186.789269 257.661796 
L 1181.005586 248.68553 
L 1174.065165 237.435718 
L 1167.124745 225.75778 
L 1157.870851 209.692614 
L 1145.146747 187.079862 
L 1127.795696 156.282634 
L 1118.541802 140.354199 
L 1111.601381 128.821036 
L 1104.660961 117.75219 
L 1098.877277 108.954379 
L 1093.093594 100.605257 
L 1088.466647 94.287577 
L 1083.8397 88.323164 
L 1079.212753 82.7414 
L 1074.585806 77.571665 
L 1071.115596 73.982433 
L 1067.645385 70.653888 
L 1064.175175 67.598427 
L 1060.704965 64.828444 
L 1057.234755 62.356334 
L 1053.764545 60.194493 
L 1050.294334 58.355315 
L 1046.824124 56.851195 
L 1043.353914 55.694529 
L 1041.04044 55.122568 
L 1038.726967 54.714213 
L 1036.413493 54.473136 
L 1032.943283 54.402222 
L 98.3 54.402222 
L 98.3 54.402222 
" clip-path="url(#p466c24e727)" style="fill: none; stroke: #fb0000; stroke-opacity: 0.8; stroke-width: 2.2; stroke-linecap: square"/>
   </g>
   <g id="line2d_19">
    <path d="M 1253.88 490.424444 
L 1251.566527 490.309078 
L 1249.253053 489.966242 
L 1246.93958 489.400835 
L 1244.626106 488.617753 
L 1242.312633 487.621892 
L 1239.999159 486.41815 
L 1237.685686 485.011423 
L 1235.372212 483.406608 
L 1233.058739 481.608603 
L 1229.588529 478.560072 
L 1226.118318 475.104406 
L 1222.648108 471.258132 
L 1219.177898 467.037775 
L 1215.707688 462.459864 
L 1212.237477 457.540923 
L 1208.767267 452.297481 
L 1204.14032 444.830008 
L 1199.513373 436.854198 
L 1194.886426 428.409226 
L 1190.259479 419.534265 
L 1184.475796 407.895574 
L 1178.692112 395.722748 
L 1171.751692 380.51803 
L 1164.811271 364.78655 
L 1155.557377 343.220355 
L 1139.363063 304.734361 
L 1126.638959 274.755853 
L 1118.541802 256.209302 
L 1111.601381 240.831751 
L 1105.817698 228.484431 
L 1100.034014 216.643547 
L 1094.25033 205.385612 
L 1089.623383 196.850404 
L 1084.996436 188.776426 
L 1080.369489 181.202852 
L 1076.899279 175.874627 
L 1073.429069 170.866443 
L 1069.958859 166.194824 
L 1066.488649 161.876299 
L 1063.018438 157.927394 
L 1059.548228 154.364635 
L 1056.078018 151.204549 
L 1052.607808 148.463664 
L 1050.294334 146.877457 
L 1047.980861 145.489803 
L 1045.667387 144.305599 
L 1043.353914 143.329742 
L 1041.04044 142.567128 
L 1038.726967 142.022655 
L 1036.413493 141.701218 
L 1034.10002 141.606667 
L 98.3 141.606667 
L 98.3 141.606667 
" clip-path="url(#p466c24e727)" style="fill: none; stroke-dasharray: 8.14,3.52; stroke-dashoffset: 0; stroke: #fb0000; stroke-opacity: 0.8; stroke-width: 2.2"/>
   </g>
   <g id="patch_5">
    <path d="M 98.3 403.22 
L 98.3 10.8 
" style="fill: none; stroke: #000000; stroke-width: 1.5; stroke-linejoin: miter; stroke-linecap: square"/>
   </g>
   <g id="patch_6">
    <path d="M 1253.88 403.22 
L 1253.88 10.8 
" style="fill: none; stroke: #000000; stroke-width: 1.5; stroke-linejoin: miter; stroke-linecap: square"/>
   </g>
   <g id="patch_7">
    <path d="M 98.3 403.22 
L 1253.88 403.22 
" style="fill: none; stroke: #000000; stroke-width: 1.5; stroke-linejoin: miter; stroke-linecap: square"/>
   </g>
   <g id="patch_8">
    <path d="M 98.3 10.8 
L 1253.88 10.8 
" style="fill: none; stroke: #000000; stroke-width: 1.5; stroke-linejoin: miter; stroke-linecap: square"/>
   </g>
   <g id="line2d_20">
    <path d="M 119.10044 54.838244 
L 139.90088 55.274267 
L 160.585762 55.710289 
L 181.386202 56.146311 
L 202.071084 56.582333 
L 202.071084 56.582333 
L 222.871524 57.018356 
L 243.556406 57.454378 
L 284.92617 58.326422 
L 305.611052 58.762444 
L 326.295934 59.198467 
L 367.665698 60.070511 
L 388.235022 60.506533 
L 429.489228 61.378578 
L 450.17411 61.8146 
L 491.312758 62.686644 
L 532.451406 63.558689 
L 573.474496 64.430733 
L 573.474496 64.430733 
L 614.497586 65.302778 
L 635.06691 65.7388 
L 675.974442 66.610844 
L 696.428208 67.046867 
L 716.881974 67.482889 
L 778.243272 68.790956 
L 798.58148 69.226978 
L 819.035246 69.663 
L 880.165428 70.971067 
L 900.503636 71.407089 
L 920.841844 71.843111 
L 981.74091 73.151178 
L 981.74091 73.151178 
L 1021.377304 112.8292 
L 1076.614028 165.587889 
L 1093.485496 204.829889 
L 1126.072852 230.991222 
L 1169.52266 322.555889 
L 1169.52266 322.555889 
L 1195.869884 348.717222 
L 1208.581264 361.797889 
" clip-path="url(#p466c24e727)" style="fill: none; stroke: #1f77b4; stroke-width: 2.8; stroke-linecap: square"/>
   </g>
   <g id="PathCollection_1">
    <defs>
     <path id="md6095daabf" d="M 0 -14.142136 
L -14.142136 14.142136 
L 14.142136 14.142136 
z
" style="stroke: #000000"/>
    </defs>
    <g clip-path="url(#p466c24e727)">
     <use xlink:href="#md6095daabf" x="388.235022" y="60.506533" style="fill: #2ca02c; stroke: #000000"/>
     <use xlink:href="#md6095daabf" x="573.474496" y="64.430733" style="fill: #2ca02c; stroke: #000000"/>
     <use xlink:href="#md6095daabf" x="819.035246" y="69.663" style="fill: #2ca02c; stroke: #000000"/>
    </g>
   </g>
   <g id="PathCollection_2">
    <defs>
     <path id="mcb5c3219d4" d="M 0 -14.142136 
L -14.142136 14.142136 
L 14.142136 14.142136 
z
" style="stroke: #000000"/>
    </defs>
    <g clip-path="url(#p466c24e727)">
     <use xlink:href="#mcb5c3219d4" x="920.841844" y="71.843111" style="fill: #ff7f0e; stroke: #000000"/>
     <use xlink:href="#mcb5c3219d4" x="981.74091" y="73.151178" style="fill: #ff7f0e; stroke: #000000"/>
     <use xlink:href="#mcb5c3219d4" x="1021.377304" y="112.8292" style="fill: #ff7f0e; stroke: #000000"/>
     <use xlink:href="#mcb5c3219d4" x="1093.485496" y="204.829889" style="fill: #ff7f0e; stroke: #000000"/>
     <use xlink:href="#mcb5c3219d4" x="1126.072852" y="230.991222" style="fill: #ff7f0e; stroke: #000000"/>
     <use xlink:href="#mcb5c3219d4" x="1169.52266" y="322.555889" style="fill: #ff7f0e; stroke: #000000"/>
     <use xlink:href="#mcb5c3219d4" x="1208.581264" y="361.797889" style="fill: #ff7f0e; stroke: #000000"/>
    </g>
   </g>
   <g id="PathCollection_3">
    <defs>
     <path id="m4c748d6aa8" d="M -4.330127 8.660254 
L 0 4.330127 
L 4.330127 8.660254 
L 8.660254 4.330127 
L 4.330127 0 
L 8.660254 -4.330127 
L 4.330127 -8.660254 
L 0 -4.330127 
L -4.330127 -8.660254 
L -8.660254 -4.330127 
L -4.330127 0 
L -8.660254 4.330127 
z
" style="stroke: #000000; stroke-width: 1.8"/>
    </defs>
    <g clip-path="url(#p466c24e727)">
     <use xlink:href="#m4c748d6aa8" x="573.474496" y="64.430733" style="fill: #d62728; stroke: #000000; stroke-width: 1.8"/>
     <use xlink:href="#m4c748d6aa8" x="981.74091" y="73.151178" style="fill: #d62728; stroke: #000000; stroke-width: 1.8"/>
     <use xlink:href="#m4c748d6aa8" x="1208.581264" y="361.797889" style="fill: #d62728; stroke: #000000; stroke-width: 1.8"/>
    </g>
   </g>
  </g>
 </g>
 <defs>
  <clipPath id="p466c24e727">
   <rect x="98.3" y="10.8" width="1155.58" height="392.42"/>
  </clipPath>
 </defs>
</svg>
